<svg width="100" height="100" viewBox="0 0 100 100" fill="none" xmlns="http://www.w3.org/2000/svg">
<rect x="0.5" y="0.5" width="99" height="99" rx="11.5" fill="white" stroke="#2A966C"/>
<path fill-rule="evenodd" clip-rule="evenodd" d="M42.6122 30.375H56.3878C58.0983 30.375 59.5101 30.375 60.6601 30.4689C61.8546 30.5665 62.9526 30.776 63.9839 31.3014C65.5833 32.1164 66.8836 33.4167 67.6986 35.0161C68.2241 36.0474 68.4335 37.1454 68.5311 38.3399C68.6251 39.4899 68.625 40.9017 68.625 42.6122V56.3878C68.625 58.0984 68.6251 59.5101 68.5311 60.6601C68.4335 61.8546 68.2241 62.9526 67.6986 63.9839C66.8836 65.5833 65.5833 66.8836 63.9839 67.6986C62.9526 68.2241 61.8546 68.4335 60.6601 68.5311C59.5101 68.6251 58.0984 68.625 56.3878 68.625H42.6122C40.9017 68.625 39.4899 68.6251 38.3399 68.5311C37.1454 68.4335 36.0474 68.2241 35.0161 67.6986C33.4167 66.8836 32.1164 65.5833 31.3014 63.9839C30.776 62.9526 30.5665 61.8546 30.4689 60.6601C30.375 59.5101 30.375 58.0983 30.375 56.3878V42.6122C30.375 40.9017 30.375 39.4899 30.4689 38.3399C30.5665 37.1454 30.776 36.0474 31.3014 35.0161C32.1164 33.4167 33.4167 32.1164 35.0161 31.3014C36.0474 30.776 37.1454 30.5665 38.3399 30.4689C39.4899 30.375 40.9017 30.375 42.6122 30.375ZM38.686 34.7048C37.7543 34.7809 37.2779 34.9189 36.9455 35.0882C36.1459 35.4957 35.4957 36.1459 35.0882 36.9455C34.9189 37.2779 34.7809 37.7543 34.7048 38.686C34.6267 39.6424 34.625 40.8798 34.625 42.7V56.3C34.625 58.1202 34.6267 59.3576 34.7048 60.3141C34.7809 61.2457 34.9189 61.7221 35.0882 62.0545C35.4957 62.8542 36.1459 63.5043 36.9455 63.9118C37.2779 64.0811 37.7543 64.2191 38.686 64.2952C39.6424 64.3734 40.8798 64.375 42.7 64.375H56.3C58.1202 64.375 59.3576 64.3734 60.3141 64.2952C61.2457 64.2191 61.7221 64.0811 62.0545 63.9118C62.8542 63.5043 63.5043 62.8542 63.9118 62.0545C64.0811 61.7221 64.2191 61.2457 64.2952 60.3141C64.3734 59.3576 64.375 58.1202 64.375 56.3V42.7C64.375 40.8798 64.3734 39.6424 64.2952 38.686C64.2191 37.7543 64.0811 37.2779 63.9118 36.9455C63.5043 36.1459 62.8542 35.4957 62.0545 35.0882C61.7221 34.9189 61.2457 34.7809 60.3141 34.7048C59.3576 34.6267 58.1202 34.625 56.3 34.625H42.7C40.8798 34.625 39.6424 34.6267 38.686 34.7048ZM41.762 40.5253C41.9833 39.5596 42.8426 38.875 43.8333 38.875H46.6666C47.6573 38.875 48.5166 39.5596 48.7379 40.5253L52.6338 57.5253C52.896 58.6693 52.1811 59.8092 51.0372 60.0713C49.8932 60.3335 48.7534 59.6186 48.4912 58.4747L47.8954 55.875H42.6046L42.0088 58.4747C41.7467 59.6186 40.6068 60.3335 39.4628 60.0713C38.3189 59.8092 37.604 58.6693 37.8662 57.5253L41.762 40.5253ZM43.5785 51.625H46.9215L45.25 44.3313L43.5785 51.625ZM58 38.875C59.1736 38.875 60.125 39.8264 60.125 41V58C60.125 59.1736 59.1736 60.125 58 60.125C56.8264 60.125 55.875 59.1736 55.875 58V41C55.875 39.8264 56.8264 38.875 58 38.875Z" fill="#2A966C"/>
</svg>
