<svg width="39" height="37" viewBox="0 0 39 37" fill="none" xmlns="http://www.w3.org/2000/svg">
<path d="M25.7844 9.1835C25.7844 12.5972 22.8833 15.5413 19.0734 15.5413C15.2635 15.5413 12.3624 12.5972 12.3624 9.1835C12.3624 5.76977 15.2635 2.82569 19.0734 2.82569C22.8833 2.82569 25.7844 5.76977 25.7844 9.1835ZM2.82569 32.1422C2.82569 31.695 3.03584 31.0663 3.96217 30.243C4.90282 29.407 6.34638 28.5988 8.16655 27.8967C11.8071 26.4923 16.23 25.7844 19.0734 25.7844C21.9169 25.7844 26.3398 26.4923 29.9803 27.8967C31.8005 28.5988 33.244 29.407 34.1847 30.243C35.111 31.0663 35.3211 31.695 35.3211 32.1422V33.9083H2.82569V32.1422Z" fill="#2A966C" stroke="#2A966C" stroke-width="5.65138"/>
</svg>
