<svg width="30" height="30" viewBox="0 0 30 30" fill="none" xmlns="http://www.w3.org/2000/svg">
<g clip-path="url(#clip0_1_4284)">
<rect width="30" height="30" fill="white"/>
<g clip-path="url(#clip1_1_4284)">
<path d="M25.3859 3.73855C25.1455 3.2684 24.5168 2.88379 23.9888 2.88379H10.0112C9.48313 2.88379 8.85447 3.26846 8.61406 3.73855L5.71573 9.4082C5.47537 9.87836 5.71074 10.263 6.23879 10.263H27.7611C28.2891 10.263 28.5246 9.8783 28.2842 9.4082L25.3859 3.73855Z" fill="#18714E"/>
<path opacity="0.1" d="M7.34558 6.22031H14.0619V5.26025H7.83636L7.34558 6.22031ZM26.1637 5.26025H19.9381V6.22031H26.6544L26.1637 5.26025Z" fill="#2A966C"/>
<path d="M28.8776 9.5415H5.12222V30.3949H28.8776V9.5415Z" fill="#2A966C"/>
<path opacity="0.1" d="M28.8782 12.4961H25.5007V14.1215H28.8782V12.4961Z" fill="#2A966C"/>
<path opacity="0.1" d="M24.2571 19.8726H20.8795V21.4979H24.2571V19.8726Z" fill="#2A966C"/>
<path opacity="0.1" d="M20.0885 12.4707H16.7108V14.0961H20.0885V12.4707Z" fill="#2A966C"/>
<path opacity="0.1" d="M8.49998 16.436H5.12241V18.0614H8.49998V16.436Z" fill="#2A966C"/>
<path opacity="0.1" d="M11.1528 10.9995H7.77518V12.6249H11.1528V10.9995Z" fill="#2A966C"/>
<path opacity="0.1" d="M16.1452 22.2183H12.7675V23.8437H16.1452V22.2183Z" fill="#2A966C"/>
<path opacity="0.1" d="M10.1888 26.6323H6.81125V28.2577H10.1888V26.6323Z" fill="#2A966C"/>
<path opacity="0.1" d="M28.8776 26.5405H25.5V28.1659H28.8776V26.5405Z" fill="#2A966C"/>
<path d="M20.4237 23.0312H13.5759V30.395H20.4237V23.0312Z" fill="white"/>
<g opacity="0.2">
<path d="M17.4802 23.0312H16.5201V29.6737H17.4802V23.0312Z" fill="#2A966C"/>
</g>
<path d="M11.3664 14.0903H7.21515V18.7819H11.3664V14.0903Z" fill="white"/>
<path opacity="0.2" d="M11.3664 14.0903H7.21515V15.1246H11.3664V14.0903Z" fill="#2A966C"/>
<path d="M11.3664 15.9561H7.21515V16.9161H11.3664V15.9561Z" fill="#18714E"/>
<path d="M11.3663 19.2621H7.21514C6.95 19.2621 6.73508 19.0473 6.73508 18.7821V14.0904C6.73508 13.8252 6.95 13.6104 7.21514 13.6104H11.3664C11.6315 13.6104 11.8464 13.8252 11.8464 14.0904V18.7821C11.8464 19.0473 11.6315 19.2621 11.3663 19.2621ZM7.69514 18.3021H10.8863V14.5705H7.69514V18.3021Z" fill="#258962"/>
<path d="M19.0756 14.0903H14.9245V18.7819H19.0756V14.0903Z" fill="white"/>
<path opacity="0.2" d="M19.0756 14.0903H14.9245V15.1246H19.0756V14.0903Z" fill="#2A966C"/>
<path d="M19.0756 15.9561H14.9245V16.9161H19.0756V15.9561Z" fill="#18714E"/>
<path d="M19.0756 19.2621H14.9244C14.6593 19.2621 14.4444 19.0473 14.4444 18.7821V14.0904C14.4444 13.8252 14.6593 13.6104 14.9244 13.6104H19.0756C19.3408 13.6104 19.5556 13.8252 19.5556 14.0904V18.7821C19.5556 19.0473 19.3408 19.2621 19.0756 19.2621ZM15.4044 18.3021H18.5955V14.5705H15.4044V18.3021Z" fill="#258962"/>
<path d="M26.7851 14.0903H22.6339V18.7819H26.7851V14.0903Z" fill="white"/>
<path opacity="0.2" d="M26.7851 14.0903H22.6339V15.1246H26.7851V14.0903Z" fill="#2A966C"/>
<path d="M26.7851 15.9561H22.6339V16.9161H26.7851V15.9561Z" fill="#18714E"/>
<path d="M26.7852 19.2621H22.634C22.3688 19.2621 22.1539 19.0473 22.1539 18.7821V14.0904C22.1539 13.8252 22.3688 13.6104 22.634 13.6104H26.7852C27.0504 13.6104 27.2653 13.8252 27.2653 14.0904V18.7821C27.2653 19.0473 27.0504 19.2621 26.7852 19.2621ZM23.114 18.3021H26.3052V14.5705H23.114V18.3021Z" fill="#258962"/>
<path d="M11.3664 20.6855H7.21515V25.3771H11.3664V20.6855Z" fill="white"/>
<path opacity="0.2" d="M11.3664 20.6855H7.21515V21.7198H11.3664V20.6855Z" fill="#2A966C"/>
<path d="M11.3664 22.5513H7.21515V23.5113H11.3664V22.5513Z" fill="#18714E"/>
<path d="M11.3663 25.8573H7.21514C6.95 25.8573 6.73508 25.6425 6.73508 25.3773V20.6856C6.73508 20.4204 6.95 20.2056 7.21514 20.2056H11.3664C11.6315 20.2056 11.8464 20.4204 11.8464 20.6856V25.3773C11.8464 25.6425 11.6315 25.8573 11.3663 25.8573ZM7.69514 24.8973H10.8863V21.1657H7.69514V24.8973Z" fill="#258962"/>
<path d="M26.7851 20.6855H22.6339V25.3771H26.7851V20.6855Z" fill="white"/>
<path opacity="0.2" d="M26.7851 20.6855H22.6339V21.7198H26.7851V20.6855Z" fill="#2A966C"/>
<path d="M26.7851 22.5513H22.6339V23.5113H26.7851V22.5513Z" fill="#18714E"/>
<path d="M26.7852 25.8569H22.634C22.3688 25.8569 22.1539 25.642 22.1539 25.3768V20.6851C22.1539 20.4199 22.3688 20.2051 22.634 20.2051H26.7852C27.0504 20.2051 27.2653 20.4199 27.2653 20.6851V25.3768C27.2653 25.642 27.0504 25.8569 26.7852 25.8569ZM23.114 24.8968H26.3052V21.1652H23.114V24.8968Z" fill="#258962"/>
<path d="M29.7857 9.58045C29.7857 9.22842 29.4976 8.94043 29.1457 8.94043H4.85434C4.50231 8.94043 4.21432 9.22848 4.21432 9.58045V10.3596C4.21432 10.7116 4.50237 10.9996 4.85434 10.9996H29.1456C29.4976 10.9996 29.7856 10.7115 29.7856 10.3596L29.7857 9.58045Z" fill="#258962"/>
<path d="M32 30.8578C32 30.9999 31.8838 31.1163 31.7415 31.1163H2.25852C2.11631 31.1163 2 30.9999 2 30.8578V29.9325C2 29.7902 2.11631 29.6738 2.25852 29.6738H31.7415C31.8838 29.6738 32 29.7902 32 29.9325V30.8578Z" fill="#18714E"/>
<path d="M22.4585 29.6738H11.5418V31.1162H22.4585V29.6738Z" fill="#2A966C"/>
<path d="M18.088 3.91309C17.8228 3.91309 17.608 4.12795 17.608 4.39314V5.43348H16.3918V4.39314C16.3918 4.12795 16.1769 3.91309 15.9118 3.91309C15.6467 3.91309 15.4317 4.12795 15.4317 4.39314V7.43387C15.4317 7.69906 15.6467 7.91393 15.9118 7.91393C16.1769 7.91393 16.3918 7.69906 16.3918 7.43387V6.39354H17.608V7.43387C17.608 7.69906 17.8228 7.91393 18.088 7.91393C18.3532 7.91393 18.5681 7.69906 18.5681 7.43387V4.39314C18.5681 4.12795 18.3532 3.91309 18.088 3.91309Z" fill="white"/>
</g>
</g>
<defs>
<clipPath id="clip0_1_4284">
<rect width="30" height="30" fill="white"/>
</clipPath>
<clipPath id="clip1_1_4284">
<rect width="30" height="30" fill="white" transform="translate(2 2)"/>
</clipPath>
</defs>
</svg>
