<svg width="30" height="30" viewBox="0 0 30 30" fill="none" xmlns="http://www.w3.org/2000/svg">
<path d="M20.625 30C21.6605 30 22.5 29.1605 22.5 28.125C22.5 27.0895 21.6605 26.25 20.625 26.25C19.5895 26.25 18.75 27.0895 18.75 28.125C18.75 29.1605 19.5895 30 20.625 30Z" fill="#2A966C"/>
<path d="M13.125 30C14.1605 30 15 29.1605 15 28.125C15 27.0895 14.1605 26.25 13.125 26.25C12.0895 26.25 11.25 27.0895 11.25 28.125C11.25 29.1605 12.0895 30 13.125 30Z" fill="#2A966C"/>
<path d="M29.6466 10.1531C29.2931 9.66422 28.7273 9.375 28.125 9.375H8.89547L7.46906 1.53984C7.30781 0.648281 6.53156 0 5.625 0H1.875C0.838594 0 0 0.838594 0 1.875C0 2.91141 0.838594 3.75 1.875 3.75H4.05938L7.53094 22.8352C7.69219 23.7267 8.46844 24.375 9.375 24.375H24.375C25.1827 24.375 25.8984 23.8584 26.153 23.0934L29.903 11.8434C30.0952 11.272 29.9981 10.642 29.6466 10.1531Z" fill="#2A966C"/>
</svg>
