<svg width="30" height="30" viewBox="0 0 30 30" fill="none" xmlns="http://www.w3.org/2000/svg">
<g clip-path="url(#clip0_1_4265)">
<rect width="30" height="30" fill="white"/>
<g clip-path="url(#clip1_1_4265)">
<path d="M2.95606 5.36426L25.3828 8.20312C25.834 8.25879 26.1504 8.67187 26.0947 9.12012L24.7207 19.9658C24.665 20.417 24.252 20.7334 23.8037 20.6777L1.37402 17.8389C0.922853 17.7832 0.606446 17.3701 0.662111 16.9219L2.03613 6.07617C2.09473 5.625 2.50488 5.30859 2.95606 5.36426Z" fill="#2A966C"/>
<path d="M26.54 9.01771C26.54 9.07044 26.5371 9.12611 26.5312 9.17884L25.1572 20.0245C25.1162 20.3585 24.9463 20.6574 24.6797 20.8624C24.4131 21.0675 24.082 21.1583 23.748 21.1173L1.31836 18.2784C0.629882 18.1906 0.137694 17.5577 0.225585 16.8693L1.59961 6.02356C1.6875 5.33509 2.32031 4.8429 3.00879 4.93079L25.4385 7.76966C25.7725 7.81068 26.0713 7.9806 26.2764 8.2472C26.4492 8.46986 26.54 8.73939 26.54 9.01771ZM1.0957 17.0245C1.0957 17.215 1.23633 17.379 1.42969 17.4025L23.8594 20.2443C23.9619 20.256 24.0615 20.2296 24.1406 20.1681C24.2227 20.1066 24.2725 20.0158 24.2842 19.9132L25.6582 9.06751C25.6699 8.9679 25.6436 8.86536 25.582 8.78626C25.5205 8.70423 25.4297 8.65443 25.3271 8.64271L2.90039 5.80091C2.69238 5.77454 2.49902 5.92396 2.47265 6.13196L1.09863 16.9747C1.09863 16.9923 1.0957 17.007 1.0957 17.0245Z" fill="#125B3F"/>
<path d="M4.23925 12.4279L26.6982 9.82931C27.1494 9.77658 27.5566 10.0988 27.6094 10.55L28.8662 21.4104C28.9189 21.8615 28.5967 22.2688 28.1455 22.3215L5.68652 24.9201C5.23535 24.9729 4.82812 24.6506 4.77538 24.1994L3.51855 13.3391C3.46581 12.8879 3.79101 12.4807 4.23925 12.4279Z" fill="#2A966C"/>
<path d="M29.3115 21.5039C29.3115 22.1338 28.8369 22.6816 28.1953 22.7549L5.73633 25.3535C5.04492 25.4326 4.41797 24.9375 4.33887 24.2461L3.08203 13.3887C3.00293 12.6973 3.49805 12.0703 4.18945 11.9912L26.6484 9.39258C27.3398 9.31348 27.9668 9.80859 28.0459 10.5L29.3027 21.3604C29.3086 21.4072 29.3115 21.457 29.3115 21.5039ZM3.95215 13.2451C3.95215 13.2598 3.95215 13.2744 3.95508 13.2891L5.21191 24.1494C5.22363 24.252 5.27344 24.3428 5.35547 24.4043C5.4375 24.4658 5.53418 24.4951 5.63672 24.4834L28.0928 21.8848C28.3008 21.8613 28.4531 21.6709 28.4268 21.4629L27.1699 10.6025C27.1465 10.3945 26.9561 10.2422 26.748 10.2686L4.28906 12.8672C4.0957 12.8877 3.95215 13.0547 3.95215 13.2451Z" fill="#125B3F"/>
<path d="M23.1123 15.8791L25.8691 15.5598C26.3203 15.507 26.7275 15.8293 26.7803 16.2805L27.0996 19.0373C27.1523 19.4885 26.8301 19.8957 26.3789 19.9485L23.6221 20.2678C23.1709 20.3205 22.7637 19.9983 22.7109 19.5471L22.3916 16.7902C22.3389 16.3391 22.6611 15.9289 23.1123 15.8791Z" fill="#40C28F"/>
<path d="M27.5449 19.1338C27.5449 19.7637 27.0703 20.3115 26.4287 20.3848L23.6719 20.7041C22.9805 20.7832 22.3535 20.2881 22.2744 19.5967L21.9551 16.8398C21.876 16.1484 22.3711 15.5215 23.0625 15.4424L25.8193 15.123C26.5107 15.0439 27.1377 15.5391 27.2168 16.2305L27.5361 18.9873C27.542 19.0371 27.5449 19.084 27.5449 19.1338ZM22.8252 16.6934C22.8252 16.708 22.8252 16.7227 22.8281 16.7373L23.1475 19.4941C23.1709 19.7021 23.3613 19.8545 23.5693 19.8281L26.3262 19.5088C26.5342 19.4854 26.6865 19.2949 26.6602 19.0869L26.3408 16.3301C26.3174 16.1221 26.127 15.9697 25.9189 15.9961L23.1621 16.3154C22.9687 16.3359 22.8252 16.5029 22.8252 16.6934Z" fill="#125B3F"/>
<path d="M20.9561 20.3703C20.9561 20.59 20.792 20.7805 20.5664 20.8068L13.4297 21.633C13.1895 21.6623 12.9697 21.4894 12.9434 21.2463C12.9141 21.006 13.0869 20.7863 13.3301 20.7599L20.4668 19.9338C20.707 19.9045 20.9268 20.0773 20.9531 20.3205C20.9561 20.3351 20.9561 20.3527 20.9561 20.3703ZM21.0088 18.4865C21.0088 18.7062 20.8447 18.8967 20.6191 18.923L11.1621 20.0187C10.9219 20.048 10.7022 19.8752 10.6758 19.632C10.6465 19.3918 10.8193 19.1721 11.0625 19.1457L20.5195 18.05C20.7598 18.0207 20.9795 18.1935 21.0059 18.4367C21.0088 18.4543 21.0088 18.4689 21.0088 18.4865ZM20.7744 16.4562C20.7744 16.676 20.6104 16.8664 20.3848 16.8928L14.4961 17.5754C14.2559 17.6047 14.0361 17.4318 14.0098 17.1887C13.9805 16.9484 14.1533 16.7287 14.3965 16.7023L20.2852 16.0197C20.5254 15.9904 20.7451 16.1633 20.7715 16.4064C20.7744 16.424 20.7744 16.4416 20.7744 16.4562Z" fill="#125B3F"/>
<path d="M7.32714 23.1183C7.32714 23.3381 7.16308 23.5285 6.93749 23.5549C6.69726 23.5842 6.47753 23.4113 6.45117 23.1682L6.29882 21.8439C6.26953 21.6037 6.44238 21.384 6.68554 21.3576C6.92871 21.3312 7.1455 21.5012 7.17187 21.7443L7.32421 23.0685C7.32714 23.0832 7.32714 23.1008 7.32714 23.1183ZM7.02539 20.4904C7.02539 20.7101 6.86132 20.9006 6.63574 20.9269C6.3955 20.9562 6.17578 20.7834 6.14941 20.5402L5.99706 19.216C5.96777 18.9758 6.14062 18.756 6.38378 18.7297C6.62402 18.7004 6.84374 18.8732 6.87011 19.1164L7.02246 20.4406C7.02246 20.4553 7.02539 20.4728 7.02539 20.4904ZM6.7207 17.8625C6.7207 18.0822 6.55664 18.2726 6.33105 18.299C6.09081 18.3283 5.87109 18.1555 5.84472 17.9123L5.69238 16.5881C5.66308 16.3478 5.83593 16.1281 6.0791 16.1017C6.31933 16.0724 6.53906 16.2453 6.56542 16.4885L6.71777 17.8127C6.71777 17.8273 6.7207 17.8449 6.7207 17.8625ZM6.41601 15.2346C6.41601 15.4543 6.25195 15.6447 6.02636 15.6711C5.78613 15.7004 5.5664 15.5275 5.54003 15.2844L5.38769 13.9601C5.36132 13.7199 5.53124 13.5002 5.77441 13.4738C6.01464 13.4445 6.23437 13.6174 6.26074 13.8605L6.41308 15.1848C6.41601 15.2023 6.41601 15.217 6.41601 15.2346Z" fill="#125B3F"/>
</g>
</g>
<defs>
<clipPath id="clip0_1_4265">
<rect width="30" height="30" fill="white"/>
</clipPath>
<clipPath id="clip1_1_4265">
<rect width="30" height="30" fill="white" transform="matrix(0 -1 1 0 0 30)"/>
</clipPath>
</defs>
</svg>
