<svg width="30" height="30" viewBox="0 0 30 30" fill="none" xmlns="http://www.w3.org/2000/svg">
<path d="M25.6392 20.6033V5.2657C25.6392 2.3574 23.2823 0 20.3735 0H9.62654C6.71883 0 4.36084 2.3574 4.36084 5.2657V20.6033C4.36084 22.808 5.96531 24.6451 8.06801 25.0107L4.76566 30H7.7018L9.05719 27.9515H20.9439L22.2993 30H25.2349L21.9331 25.0107C24.0352 24.6446 25.6392 22.808 25.6392 20.6033ZM10.4404 2.36414H19.5596V3.88406H10.4404V2.36414ZM7.69658 7.27652C7.69658 6.61535 8.23195 6.07898 8.89313 6.07898H21.1073C21.768 6.07898 22.3044 6.61535 22.3044 7.27652V12.3277C22.3044 12.9888 21.768 13.5247 21.1073 13.5247H8.89318C8.23201 13.5247 7.69664 12.9888 7.69664 12.3277V7.27652H7.69658ZM8.83641 21.9143C8.06543 21.9143 7.44035 21.2892 7.44035 20.5187C7.44035 19.7472 8.06543 19.1221 8.83641 19.1221C9.60744 19.1221 10.2325 19.7471 10.2325 20.5187C10.2325 21.2892 9.60744 21.9143 8.83641 21.9143ZM9.93855 26.6198L10.9587 25.0778H19.0419L20.062 26.6198H9.93855ZM21.1641 21.9143C20.3931 21.9143 19.7681 21.2892 19.7681 20.5187C19.7681 19.7472 20.3931 19.1221 21.1641 19.1221C21.9352 19.1221 22.5602 19.7471 22.5602 20.5187C22.5602 21.2892 21.9352 21.9143 21.1641 21.9143Z" fill="#2A966C"/>
</svg>
