<svg width="359" height="139" viewBox="0 0 359 139" fill="none" xmlns="http://www.w3.org/2000/svg">
<g filter="url(#filter0_d_1_4165)">
<rect x="2" y="9" width="353" height="121" rx="12" fill="#2A966C" fill-opacity="0.88" shape-rendering="crispEdges"/>
</g>
<path d="M27.096 31.432C26.9147 31.1333 26.664 30.904 26.344 30.744C26.0347 30.584 25.6667 30.504 25.24 30.504C24.4507 30.504 23.8267 30.76 23.368 31.272C22.92 31.784 22.696 32.472 22.696 33.336C22.696 34.3067 22.936 35.048 23.416 35.56C23.9067 36.0613 24.616 36.312 25.544 36.312C26.6427 36.312 27.4267 35.816 27.896 34.824H24.744V32.568H30.6V35.608C30.3547 36.2053 29.992 36.7653 29.512 37.288C29.0427 37.8107 28.4453 38.2427 27.72 38.584C26.9947 38.9147 26.168 39.08 25.24 39.08C24.1093 39.08 23.1067 38.84 22.232 38.36C21.368 37.8693 20.696 37.192 20.216 36.328C19.7467 35.4533 19.512 34.456 19.512 33.336C19.512 32.2267 19.7467 31.24 20.216 30.376C20.696 29.5013 21.368 28.824 22.232 28.344C23.096 27.8533 24.0933 27.608 25.224 27.608C26.6427 27.608 27.816 27.9493 28.744 28.632C29.672 29.3147 30.248 30.248 30.472 31.432H27.096ZM40.5814 34.408C40.5814 34.6533 40.5654 34.8987 40.5334 35.144H34.5974C34.6294 35.6347 34.7627 36.0027 34.9974 36.248C35.2427 36.4827 35.552 36.6 35.9254 36.6C36.448 36.6 36.8214 36.3653 37.0454 35.896H40.3894C40.2507 36.5147 39.9787 37.0693 39.5734 37.56C39.1787 38.04 38.6774 38.4187 38.0694 38.696C37.4614 38.9733 36.7894 39.112 36.0534 39.112C35.168 39.112 34.3787 38.9253 33.6854 38.552C33.0027 38.1787 32.464 37.6453 32.0694 36.952C31.6854 36.2587 31.4934 35.4427 31.4934 34.504C31.4934 33.5653 31.6854 32.7547 32.0694 32.072C32.4534 31.3787 32.9867 30.8453 33.6694 30.472C34.3627 30.0987 35.1574 29.912 36.0534 29.912C36.9387 29.912 37.7227 30.0933 38.4054 30.456C39.088 30.8187 39.6214 31.3413 40.0054 32.024C40.3894 32.696 40.5814 33.4907 40.5814 34.408ZM37.3814 33.624C37.3814 33.24 37.2534 32.9413 36.9974 32.728C36.7414 32.504 36.4214 32.392 36.0374 32.392C35.6534 32.392 35.3387 32.4987 35.0934 32.712C34.848 32.9147 34.688 33.2187 34.6134 33.624H37.3814ZM47.1608 36.328V39H45.8008C43.5074 39 42.3608 37.864 42.3608 35.592V32.632H41.2568V30.024H42.3608V27.848H45.5128V30.024H47.1448V32.632H45.5128V35.64C45.5128 35.8853 45.5661 36.0613 45.6727 36.168C45.7901 36.2747 45.9821 36.328 46.2488 36.328H47.1608ZM61.9176 27.72L57.9496 35.416V39H54.7976V35.416L50.8296 27.72H54.4136L56.3976 32.072L58.3816 27.72H61.9176ZM67.0564 39.112C66.1604 39.112 65.355 38.9253 64.6404 38.552C63.9364 38.1787 63.3817 37.6453 62.9764 36.952C62.571 36.2587 62.3684 35.4427 62.3684 34.504C62.3684 33.576 62.571 32.7653 62.9764 32.072C63.3924 31.3787 63.9524 30.8453 64.6564 30.472C65.371 30.0987 66.1764 29.912 67.0724 29.912C67.9684 29.912 68.7684 30.0987 69.4724 30.472C70.187 30.8453 70.747 31.3787 71.1524 32.072C71.5684 32.7653 71.7764 33.576 71.7764 34.504C71.7764 35.432 71.5684 36.248 71.1524 36.952C70.747 37.6453 70.187 38.1787 69.4724 38.552C68.7577 38.9253 67.9524 39.112 67.0564 39.112ZM67.0564 36.392C67.4937 36.392 67.8564 36.232 68.1444 35.912C68.443 35.5813 68.5924 35.112 68.5924 34.504C68.5924 33.896 68.443 33.432 68.1444 33.112C67.8564 32.792 67.499 32.632 67.0724 32.632C66.6457 32.632 66.2884 32.792 66.0004 33.112C65.7124 33.432 65.5684 33.896 65.5684 34.504C65.5684 35.1227 65.707 35.592 65.9844 35.912C66.2617 36.232 66.619 36.392 67.0564 36.392ZM82.2363 30.024V39H79.0843V37.72C78.8176 38.1253 78.4496 38.456 77.9803 38.712C77.5109 38.9573 76.9723 39.08 76.3643 39.08C75.3189 39.08 74.4923 38.7387 73.8843 38.056C73.2869 37.3627 72.9883 36.424 72.9883 35.24V30.024H76.1083V34.84C76.1083 35.352 76.2416 35.7573 76.5083 36.056C76.7856 36.344 77.1483 36.488 77.5963 36.488C78.0549 36.488 78.4176 36.344 78.6843 36.056C78.9509 35.7573 79.0843 35.352 79.0843 34.84V30.024H82.2363ZM87.157 31.608C87.509 31.096 87.9357 30.6907 88.437 30.392C88.9383 30.0933 89.477 29.944 90.053 29.944V33.288H89.173C88.4903 33.288 87.9837 33.4213 87.653 33.688C87.3223 33.9547 87.157 34.4187 87.157 35.08V39H84.021V30.024H87.157V31.608ZM98.4958 39.112C97.1838 39.112 96.1064 38.8027 95.2638 38.184C94.4211 37.5547 93.9678 36.6587 93.9038 35.496H97.2478C97.2798 35.8907 97.3971 36.1787 97.5998 36.36C97.8024 36.5413 98.0638 36.632 98.3838 36.632C98.6718 36.632 98.9064 36.5627 99.0878 36.424C99.2798 36.2747 99.3758 36.072 99.3758 35.816C99.3758 35.4853 99.2211 35.2293 98.9118 35.048C98.6024 34.8667 98.1011 34.664 97.4078 34.44C96.6718 34.1947 96.0744 33.96 95.6158 33.736C95.1678 33.5013 94.7731 33.1653 94.4318 32.728C94.1011 32.28 93.9358 31.6987 93.9358 30.984C93.9358 30.2587 94.1171 29.64 94.4798 29.128C94.8424 28.6053 95.3438 28.2107 95.9838 27.944C96.6238 27.6773 97.3491 27.544 98.1598 27.544C99.4718 27.544 100.517 27.8533 101.296 28.472C102.085 29.08 102.506 29.9387 102.56 31.048H99.1518C99.1411 30.7067 99.0344 30.4507 98.8318 30.28C98.6398 30.1093 98.3891 30.024 98.0798 30.024C97.8451 30.024 97.6531 30.0933 97.5038 30.232C97.3544 30.3707 97.2798 30.568 97.2798 30.824C97.2798 31.0373 97.3598 31.224 97.5198 31.384C97.6904 31.5333 97.8984 31.6667 98.1438 31.784C98.3891 31.8907 98.7518 32.0293 99.2318 32.2C99.9464 32.4453 100.533 32.6907 100.992 32.936C101.461 33.1707 101.861 33.5067 102.192 33.944C102.533 34.3707 102.704 34.9147 102.704 35.576C102.704 36.248 102.533 36.8507 102.192 37.384C101.861 37.9173 101.376 38.3387 100.736 38.648C100.106 38.9573 99.3598 39.112 98.4958 39.112ZM107.298 31.608C107.65 31.096 108.076 30.6907 108.578 30.392C109.079 30.0933 109.618 29.944 110.194 29.944V33.288H109.314C108.631 33.288 108.124 33.4213 107.794 33.688C107.463 33.9547 107.298 34.4187 107.298 35.08V39H104.162V30.024H107.298V31.608ZM112.902 29.192C112.347 29.192 111.899 29.0427 111.558 28.744C111.227 28.4347 111.062 28.0507 111.062 27.592C111.062 27.1227 111.227 26.7333 111.558 26.424C111.899 26.1147 112.347 25.96 112.902 25.96C113.446 25.96 113.883 26.1147 114.214 26.424C114.555 26.7333 114.726 27.1227 114.726 27.592C114.726 28.0507 114.555 28.4347 114.214 28.744C113.883 29.0427 113.446 29.192 112.902 29.192ZM114.454 30.024V39H111.318V30.024H114.454ZM122.438 36.6H125.942V39H119.302V27.72H122.438V36.6ZM126.65 34.504C126.65 33.576 126.815 32.7653 127.146 32.072C127.487 31.3787 127.946 30.8453 128.522 30.472C129.108 30.0987 129.759 29.912 130.474 29.912C131.092 29.912 131.626 30.0347 132.074 30.28C132.522 30.5253 132.868 30.856 133.114 31.272V30.024H136.25V39H133.114V37.752C132.868 38.168 132.516 38.4987 132.058 38.744C131.61 38.9893 131.082 39.112 130.474 39.112C129.759 39.112 129.108 38.9253 128.522 38.552C127.946 38.1787 127.487 37.6453 127.146 36.952C126.815 36.248 126.65 35.432 126.65 34.504ZM133.114 34.504C133.114 33.928 132.954 33.4747 132.634 33.144C132.324 32.8133 131.94 32.648 131.482 32.648C131.012 32.648 130.623 32.8133 130.314 33.144C130.004 33.464 129.85 33.9173 129.85 34.504C129.85 35.08 130.004 35.5387 130.314 35.88C130.623 36.2107 131.012 36.376 131.482 36.376C131.94 36.376 132.324 36.2107 132.634 35.88C132.954 35.5493 133.114 35.0907 133.114 34.504ZM143.909 29.944C144.943 29.944 145.765 30.2907 146.373 30.984C146.981 31.6667 147.285 32.5947 147.285 33.768V39H144.149V34.184C144.149 33.672 144.015 33.272 143.749 32.984C143.482 32.6853 143.125 32.536 142.677 32.536C142.207 32.536 141.839 32.6853 141.573 32.984C141.306 33.272 141.173 33.672 141.173 34.184V39H138.037V30.024H141.173V31.304C141.45 30.8987 141.823 30.5733 142.293 30.328C142.762 30.072 143.301 29.944 143.909 29.944ZM154.621 39L152.141 35.32V39H149.005V27.16H152.141V33.544L154.621 30.024H158.381L154.845 34.536L158.445 39H154.621ZM158.853 34.504C158.853 33.576 159.018 32.7653 159.349 32.072C159.69 31.3787 160.149 30.8453 160.725 30.472C161.311 30.0987 161.962 29.912 162.677 29.912C163.295 29.912 163.829 30.0347 164.277 30.28C164.725 30.5253 165.071 30.856 165.317 31.272V30.024H168.453V39H165.317V37.752C165.071 38.168 164.719 38.4987 164.261 38.744C163.813 38.9893 163.285 39.112 162.677 39.112C161.962 39.112 161.311 38.9253 160.725 38.552C160.149 38.1787 159.69 37.6453 159.349 36.952C159.018 36.248 158.853 35.432 158.853 34.504ZM165.317 34.504C165.317 33.928 165.157 33.4747 164.837 33.144C164.527 32.8133 164.143 32.648 163.685 32.648C163.215 32.648 162.826 32.8133 162.517 33.144C162.207 33.464 162.053 33.9173 162.053 34.504C162.053 35.08 162.207 35.5387 162.517 35.88C162.826 36.2107 163.215 36.376 163.685 36.376C164.143 36.376 164.527 36.2107 164.837 35.88C165.157 35.5493 165.317 35.0907 165.317 34.504ZM176.112 29.944C177.146 29.944 177.968 30.2907 178.576 30.984C179.184 31.6667 179.488 32.5947 179.488 33.768V39H176.352V34.184C176.352 33.672 176.218 33.272 175.952 32.984C175.685 32.6853 175.328 32.536 174.88 32.536C174.41 32.536 174.042 32.6853 173.776 32.984C173.509 33.272 173.376 33.672 173.376 34.184V39H170.24V30.024H173.376V31.304C173.653 30.8987 174.026 30.5733 174.496 30.328C174.965 30.072 175.504 29.944 176.112 29.944ZM192.767 27.72V30.216H189.759V39H186.623V30.216H183.647V27.72H192.767ZM198.103 39.112C197.207 39.112 196.402 38.9253 195.687 38.552C194.983 38.1787 194.429 37.6453 194.023 36.952C193.618 36.2587 193.415 35.4427 193.415 34.504C193.415 33.576 193.618 32.7653 194.023 32.072C194.439 31.3787 194.999 30.8453 195.703 30.472C196.418 30.0987 197.223 29.912 198.119 29.912C199.015 29.912 199.815 30.0987 200.519 30.472C201.234 30.8453 201.794 31.3787 202.199 32.072C202.615 32.7653 202.823 33.576 202.823 34.504C202.823 35.432 202.615 36.248 202.199 36.952C201.794 37.6453 201.234 38.1787 200.519 38.552C199.805 38.9253 198.999 39.112 198.103 39.112ZM198.103 36.392C198.541 36.392 198.903 36.232 199.191 35.912C199.49 35.5813 199.639 35.112 199.639 34.504C199.639 33.896 199.49 33.432 199.191 33.112C198.903 32.792 198.546 32.632 198.119 32.632C197.693 32.632 197.335 32.792 197.047 33.112C196.759 33.432 196.615 33.896 196.615 34.504C196.615 35.1227 196.754 35.592 197.031 35.912C197.309 36.232 197.666 36.392 198.103 36.392ZM213.283 30.024V39H210.131V37.72C209.864 38.1253 209.496 38.456 209.027 38.712C208.558 38.9573 208.019 39.08 207.411 39.08C206.366 39.08 205.539 38.7387 204.931 38.056C204.334 37.3627 204.035 36.424 204.035 35.24V30.024H207.155V34.84C207.155 35.352 207.288 35.7573 207.555 36.056C207.832 36.344 208.195 36.488 208.643 36.488C209.102 36.488 209.464 36.344 209.731 36.056C209.998 35.7573 210.131 35.352 210.131 34.84V30.024H213.283ZM218.204 31.608C218.556 31.096 218.983 30.6907 219.484 30.392C219.985 30.0933 220.524 29.944 221.1 29.944V33.288H220.22C219.537 33.288 219.031 33.4213 218.7 33.688C218.369 33.9547 218.204 34.4187 218.204 35.08V39H215.068V30.024H218.204V31.608ZM223.808 29.192C223.253 29.192 222.805 29.0427 222.464 28.744C222.133 28.4347 221.968 28.0507 221.968 27.592C221.968 27.1227 222.133 26.7333 222.464 26.424C222.805 26.1147 223.253 25.96 223.808 25.96C224.352 25.96 224.789 26.1147 225.12 26.424C225.461 26.7333 225.632 27.1227 225.632 27.592C225.632 28.0507 225.461 28.4347 225.12 28.744C224.789 29.0427 224.352 29.192 223.808 29.192ZM225.36 30.024V39H222.224V30.024H225.36ZM230.97 39.112C230.159 39.112 229.434 38.9787 228.794 38.712C228.165 38.4347 227.663 38.0613 227.29 37.592C226.927 37.112 226.725 36.5733 226.682 35.976H229.722C229.765 36.264 229.898 36.488 230.122 36.648C230.346 36.808 230.623 36.888 230.954 36.888C231.21 36.888 231.413 36.8347 231.562 36.728C231.711 36.6213 231.786 36.4827 231.786 36.312C231.786 36.088 231.663 35.9227 231.418 35.816C231.173 35.7093 230.767 35.592 230.202 35.464C229.562 35.336 229.029 35.192 228.602 35.032C228.175 34.872 227.802 34.6107 227.482 34.248C227.173 33.8853 227.018 33.3947 227.018 32.776C227.018 32.2427 227.162 31.7627 227.45 31.336C227.738 30.8987 228.159 30.552 228.714 30.296C229.279 30.04 229.957 29.912 230.746 29.912C231.919 29.912 232.842 30.2 233.514 30.776C234.186 31.352 234.575 32.1093 234.682 33.048H231.85C231.797 32.76 231.669 32.5413 231.466 32.392C231.274 32.232 231.013 32.152 230.682 32.152C230.426 32.152 230.229 32.2 230.09 32.296C229.962 32.392 229.898 32.5253 229.898 32.696C229.898 32.9093 230.021 33.0747 230.266 33.192C230.511 33.2987 230.906 33.4107 231.45 33.528C232.101 33.6667 232.639 33.8213 233.066 33.992C233.503 34.1627 233.882 34.44 234.202 34.824C234.533 35.1973 234.698 35.7093 234.698 36.36C234.698 36.8827 234.543 37.352 234.234 37.768C233.935 38.184 233.503 38.5147 232.938 38.76C232.383 38.9947 231.727 39.112 230.97 39.112ZM241.536 36.328V39H240.176C237.882 39 236.736 37.864 236.736 35.592V32.632H235.632V30.024H236.736V27.848H239.888V30.024H241.52V32.632H239.888V35.64C239.888 35.8853 239.941 36.0613 240.048 36.168C240.165 36.2747 240.357 36.328 240.624 36.328H241.536ZM30.872 46.72L26.984 58H22.968L19.064 46.72H22.424L24.984 54.864L27.528 46.72H30.872ZM33.4331 48.192C32.8785 48.192 32.4305 48.0427 32.0891 47.744C31.7585 47.4347 31.5931 47.0507 31.5931 46.592C31.5931 46.1227 31.7585 45.7333 32.0891 45.424C32.4305 45.1147 32.8785 44.96 33.4331 44.96C33.9771 44.96 34.4145 45.1147 34.7451 45.424C35.0865 45.7333 35.2571 46.1227 35.2571 46.592C35.2571 47.0507 35.0865 47.4347 34.7451 47.744C34.4145 48.0427 33.9771 48.192 33.4331 48.192ZM34.9851 49.024V58H31.8491V49.024H34.9851ZM40.595 58.112C39.7843 58.112 39.059 57.9787 38.419 57.712C37.7897 57.4347 37.2883 57.0613 36.915 56.592C36.5523 56.112 36.3497 55.5733 36.307 54.976H39.347C39.3897 55.264 39.523 55.488 39.747 55.648C39.971 55.808 40.2483 55.888 40.579 55.888C40.835 55.888 41.0377 55.8347 41.187 55.728C41.3363 55.6213 41.411 55.4827 41.411 55.312C41.411 55.088 41.2883 54.9227 41.043 54.816C40.7977 54.7093 40.3923 54.592 39.827 54.464C39.187 54.336 38.6537 54.192 38.227 54.032C37.8003 53.872 37.427 53.6107 37.107 53.248C36.7977 52.8853 36.643 52.3947 36.643 51.776C36.643 51.2427 36.787 50.7627 37.075 50.336C37.363 49.8987 37.7843 49.552 38.339 49.296C38.9043 49.04 39.5817 48.912 40.371 48.912C41.5443 48.912 42.467 49.2 43.139 49.776C43.811 50.352 44.2003 51.1093 44.307 52.048H41.475C41.4217 51.76 41.2937 51.5413 41.091 51.392C40.899 51.232 40.6377 51.152 40.307 51.152C40.051 51.152 39.8537 51.2 39.715 51.296C39.587 51.392 39.523 51.5253 39.523 51.696C39.523 51.9093 39.6457 52.0747 39.891 52.192C40.1363 52.2987 40.531 52.4107 41.075 52.528C41.7257 52.6667 42.2643 52.8213 42.691 52.992C43.1283 53.1627 43.507 53.44 43.827 53.824C44.1577 54.1973 44.323 54.7093 44.323 55.36C44.323 55.8827 44.1683 56.352 43.859 56.768C43.5603 57.184 43.1283 57.5147 42.563 57.76C42.0083 57.9947 41.3523 58.112 40.595 58.112ZM45.3528 53.504C45.3528 52.576 45.5181 51.7653 45.8488 51.072C46.1901 50.3787 46.6488 49.8453 47.2248 49.472C47.8114 49.0987 48.4621 48.912 49.1768 48.912C49.7954 48.912 50.3288 49.0347 50.7768 49.28C51.2248 49.5253 51.5714 49.856 51.8168 50.272V49.024H54.9528V58H51.8168V56.752C51.5714 57.168 51.2194 57.4987 50.7608 57.744C50.3128 57.9893 49.7848 58.112 49.1768 58.112C48.4621 58.112 47.8114 57.9253 47.2248 57.552C46.6488 57.1787 46.1901 56.6453 45.8488 55.952C45.5181 55.248 45.3528 54.432 45.3528 53.504ZM51.8168 53.504C51.8168 52.928 51.6568 52.4747 51.3368 52.144C51.0274 51.8133 50.6434 51.648 50.1848 51.648C49.7154 51.648 49.3261 51.8133 49.0168 52.144C48.7074 52.464 48.5528 52.9173 48.5528 53.504C48.5528 54.08 48.7074 54.5387 49.0168 54.88C49.3261 55.2107 49.7154 55.376 50.1848 55.376C50.6434 55.376 51.0274 55.2107 51.3368 54.88C51.6568 54.5493 51.8168 54.0907 51.8168 53.504ZM69.8983 46.72V58H66.7623V53.472H62.9383V58H59.8023V46.72H62.9383V50.96H66.7623V46.72H69.8983ZM71.1809 53.504C71.1809 52.576 71.3462 51.7653 71.6769 51.072C72.0182 50.3787 72.4769 49.8453 73.0529 49.472C73.6395 49.0987 74.2902 48.912 75.0049 48.912C75.6235 48.912 76.1569 49.0347 76.6049 49.28C77.0529 49.5253 77.3995 49.856 77.6449 50.272V49.024H80.7809V58H77.6449V56.752C77.3995 57.168 77.0475 57.4987 76.5889 57.744C76.1409 57.9893 75.6129 58.112 75.0049 58.112C74.2902 58.112 73.6395 57.9253 73.0529 57.552C72.4769 57.1787 72.0182 56.6453 71.6769 55.952C71.3462 55.248 71.1809 54.432 71.1809 53.504ZM77.6449 53.504C77.6449 52.928 77.4849 52.4747 77.1649 52.144C76.8555 51.8133 76.4715 51.648 76.0129 51.648C75.5435 51.648 75.1542 51.8133 74.8449 52.144C74.5355 52.464 74.3809 52.9173 74.3809 53.504C74.3809 54.08 74.5355 54.5387 74.8449 54.88C75.1542 55.2107 75.5435 55.376 76.0129 55.376C76.4715 55.376 76.8555 55.2107 77.1649 54.88C77.4849 54.5493 77.6449 54.0907 77.6449 53.504ZM86.3919 58.112C85.5812 58.112 84.8559 57.9787 84.2159 57.712C83.5865 57.4347 83.0852 57.0613 82.7119 56.592C82.3492 56.112 82.1465 55.5733 82.1039 54.976H85.1439C85.1865 55.264 85.3199 55.488 85.5439 55.648C85.7679 55.808 86.0452 55.888 86.3759 55.888C86.6319 55.888 86.8345 55.8347 86.9839 55.728C87.1332 55.6213 87.2079 55.4827 87.2079 55.312C87.2079 55.088 87.0852 54.9227 86.8399 54.816C86.5945 54.7093 86.1892 54.592 85.6239 54.464C84.9839 54.336 84.4505 54.192 84.0239 54.032C83.5972 53.872 83.2239 53.6107 82.9039 53.248C82.5945 52.8853 82.4399 52.3947 82.4399 51.776C82.4399 51.2427 82.5839 50.7627 82.8719 50.336C83.1599 49.8987 83.5812 49.552 84.1359 49.296C84.7012 49.04 85.3785 48.912 86.1679 48.912C87.3412 48.912 88.2639 49.2 88.9359 49.776C89.6079 50.352 89.9972 51.1093 90.1039 52.048H87.2719C87.2185 51.76 87.0905 51.5413 86.8879 51.392C86.6959 51.232 86.4345 51.152 86.1039 51.152C85.8479 51.152 85.6505 51.2 85.5119 51.296C85.3839 51.392 85.3199 51.5253 85.3199 51.696C85.3199 51.9093 85.4425 52.0747 85.6879 52.192C85.9332 52.2987 86.3279 52.4107 86.8719 52.528C87.5225 52.6667 88.0612 52.8213 88.4879 52.992C88.9252 53.1627 89.3039 53.44 89.6239 53.824C89.9545 54.1973 90.1199 54.7093 90.1199 55.36C90.1199 55.8827 89.9652 56.352 89.6559 56.768C89.3572 57.184 88.9252 57.5147 88.3599 57.76C87.8052 57.9947 87.1492 58.112 86.3919 58.112ZM95.4856 58.112C94.675 58.112 93.9496 57.9787 93.3096 57.712C92.6803 57.4347 92.179 57.0613 91.8056 56.592C91.443 56.112 91.2403 55.5733 91.1976 54.976H94.2376C94.2803 55.264 94.4136 55.488 94.6376 55.648C94.8616 55.808 95.139 55.888 95.4696 55.888C95.7256 55.888 95.9283 55.8347 96.0776 55.728C96.227 55.6213 96.3016 55.4827 96.3016 55.312C96.3016 55.088 96.179 54.9227 95.9336 54.816C95.6883 54.7093 95.283 54.592 94.7176 54.464C94.0776 54.336 93.5443 54.192 93.1176 54.032C92.691 53.872 92.3176 53.6107 91.9976 53.248C91.6883 52.8853 91.5336 52.3947 91.5336 51.776C91.5336 51.2427 91.6776 50.7627 91.9656 50.336C92.2536 49.8987 92.675 49.552 93.2296 49.296C93.795 49.04 94.4723 48.912 95.2616 48.912C96.435 48.912 97.3576 49.2 98.0296 49.776C98.7016 50.352 99.091 51.1093 99.1976 52.048H96.3656C96.3123 51.76 96.1843 51.5413 95.9816 51.392C95.7896 51.232 95.5283 51.152 95.1976 51.152C94.9416 51.152 94.7443 51.2 94.6056 51.296C94.4776 51.392 94.4136 51.5253 94.4136 51.696C94.4136 51.9093 94.5363 52.0747 94.7816 52.192C95.027 52.2987 95.4216 52.4107 95.9656 52.528C96.6163 52.6667 97.155 52.8213 97.5816 52.992C98.019 53.1627 98.3976 53.44 98.7176 53.824C99.0483 54.1973 99.2136 54.7093 99.2136 55.36C99.2136 55.8827 99.059 56.352 98.7496 56.768C98.451 57.184 98.019 57.5147 97.4536 57.76C96.899 57.9947 96.243 58.112 95.4856 58.112ZM103.891 46.16V58H100.755V46.16H103.891ZM114.253 53.408C114.253 53.6533 114.237 53.8987 114.205 54.144H108.269C108.301 54.6347 108.435 55.0027 108.669 55.248C108.915 55.4827 109.224 55.6 109.597 55.6C110.12 55.6 110.493 55.3653 110.717 54.896H114.061C113.923 55.5147 113.651 56.0693 113.245 56.56C112.851 57.04 112.349 57.4187 111.741 57.696C111.133 57.9733 110.461 58.112 109.725 58.112C108.84 58.112 108.051 57.9253 107.357 57.552C106.675 57.1787 106.136 56.6453 105.741 55.952C105.357 55.2587 105.165 54.4427 105.165 53.504C105.165 52.5653 105.357 51.7547 105.741 51.072C106.125 50.3787 106.659 49.8453 107.341 49.472C108.035 49.0987 108.829 48.912 109.725 48.912C110.611 48.912 111.395 49.0933 112.077 49.456C112.76 49.8187 113.293 50.3413 113.677 51.024C114.061 51.696 114.253 52.4907 114.253 53.408ZM111.053 52.624C111.053 52.24 110.925 51.9413 110.669 51.728C110.413 51.504 110.093 51.392 109.709 51.392C109.325 51.392 109.011 51.4987 108.765 51.712C108.52 51.9147 108.36 52.2187 108.285 52.624H111.053ZM122.465 51.152V53.76H115.217V51.152H122.465ZM132.435 46.72V49.216H127.923V51.2H131.251V53.584H127.923V58H124.787V46.72H132.435ZM136.891 50.608C137.243 50.096 137.67 49.6907 138.171 49.392C138.673 49.0933 139.211 48.944 139.787 48.944V52.288H138.907C138.225 52.288 137.718 52.4213 137.387 52.688C137.057 52.9547 136.891 53.4187 136.891 54.08V58H133.755V49.024H136.891V50.608ZM149.488 53.408C149.488 53.6533 149.472 53.8987 149.44 54.144H143.504C143.536 54.6347 143.669 55.0027 143.904 55.248C144.149 55.4827 144.458 55.6 144.832 55.6C145.354 55.6 145.728 55.3653 145.952 54.896H149.296C149.157 55.5147 148.885 56.0693 148.48 56.56C148.085 57.04 147.584 57.4187 146.976 57.696C146.368 57.9733 145.696 58.112 144.96 58.112C144.074 58.112 143.285 57.9253 142.592 57.552C141.909 57.1787 141.37 56.6453 140.976 55.952C140.592 55.2587 140.4 54.4427 140.4 53.504C140.4 52.5653 140.592 51.7547 140.976 51.072C141.36 50.3787 141.893 49.8453 142.576 49.472C143.269 49.0987 144.064 48.912 144.96 48.912C145.845 48.912 146.629 49.0933 147.312 49.456C147.994 49.8187 148.528 50.3413 148.912 51.024C149.296 51.696 149.488 52.4907 149.488 53.408ZM146.288 52.624C146.288 52.24 146.16 51.9413 145.904 51.728C145.648 51.504 145.328 51.392 144.944 51.392C144.56 51.392 144.245 51.4987 144 51.712C143.754 51.9147 143.594 52.2187 143.52 52.624H146.288ZM159.347 53.408C159.347 53.6533 159.331 53.8987 159.299 54.144H153.363C153.395 54.6347 153.528 55.0027 153.763 55.248C154.008 55.4827 154.318 55.6 154.691 55.6C155.214 55.6 155.587 55.3653 155.811 54.896H159.155C159.016 55.5147 158.744 56.0693 158.339 56.56C157.944 57.04 157.443 57.4187 156.835 57.696C156.227 57.9733 155.555 58.112 154.819 58.112C153.934 58.112 153.144 57.9253 152.451 57.552C151.768 57.1787 151.23 56.6453 150.835 55.952C150.451 55.2587 150.259 54.4427 150.259 53.504C150.259 52.5653 150.451 51.7547 150.835 51.072C151.219 50.3787 151.752 49.8453 152.435 49.472C153.128 49.0987 153.923 48.912 154.819 48.912C155.704 48.912 156.488 49.0933 157.171 49.456C157.854 49.8187 158.387 50.3413 158.771 51.024C159.155 51.696 159.347 52.4907 159.347 53.408ZM156.147 52.624C156.147 52.24 156.019 51.9413 155.763 51.728C155.507 51.504 155.187 51.392 154.803 51.392C154.419 51.392 154.104 51.4987 153.859 51.712C153.614 51.9147 153.454 52.2187 153.379 52.624H156.147ZM33.16 68.024L30.872 77H27.352L26.104 71.56L24.808 77H21.304L19.032 68.024H22.152L23.16 73.976L24.488 68.024H27.848L29.224 73.992L30.216 68.024H33.16ZM35.6363 67.192C35.0816 67.192 34.6336 67.0427 34.2923 66.744C33.9616 66.4347 33.7963 66.0507 33.7963 65.592C33.7963 65.1227 33.9616 64.7333 34.2923 64.424C34.6336 64.1147 35.0816 63.96 35.6363 63.96C36.1803 63.96 36.6176 64.1147 36.9483 64.424C37.2896 64.7333 37.4603 65.1227 37.4603 65.592C37.4603 66.0507 37.2896 66.4347 36.9483 66.744C36.6176 67.0427 36.1803 67.192 35.6363 67.192ZM37.1883 68.024V77H34.0523V68.024H37.1883ZM44.2701 74.328V77H42.9101C40.6168 77 39.4701 75.864 39.4701 73.592V70.632H38.3661V68.024H39.4701V65.848H42.6221V68.024H44.2541V70.632H42.6221V73.64C42.6221 73.8853 42.6755 74.0613 42.7821 74.168C42.8995 74.2747 43.0915 74.328 43.3581 74.328H44.2701ZM51.6125 67.944C52.6365 67.944 53.4472 68.2907 54.0445 68.984C54.6525 69.6667 54.9565 70.5947 54.9565 71.768V77H51.8205V72.184C51.8205 71.672 51.6872 71.272 51.4205 70.984C51.1538 70.6853 50.7965 70.536 50.3485 70.536C49.8792 70.536 49.5112 70.6853 49.2445 70.984C48.9778 71.272 48.8445 71.672 48.8445 72.184V77H45.7085V65.16H48.8445V69.304C49.1218 68.8987 49.4952 68.5733 49.9645 68.328C50.4445 68.072 50.9938 67.944 51.6125 67.944ZM62.8118 65.72V72.264C62.8118 72.872 62.9504 73.3413 63.2278 73.672C63.5158 74.0027 63.9478 74.168 64.5238 74.168C65.0998 74.168 65.5318 74.0027 65.8198 73.672C66.1184 73.3307 66.2678 72.8613 66.2678 72.264V65.72H69.4038V72.264C69.4038 73.2987 69.1851 74.184 68.7478 74.92C68.3104 75.6453 67.7131 76.1947 66.9558 76.568C66.2091 76.9307 65.3771 77.112 64.4598 77.112C63.5424 77.112 62.7211 76.9307 61.9958 76.568C61.2811 76.1947 60.7158 75.6453 60.2998 74.92C59.8944 74.1947 59.6918 73.3093 59.6918 72.264V65.72H62.8118ZM74.9544 77.112C74.1437 77.112 73.4184 76.9787 72.7784 76.712C72.149 76.4347 71.6477 76.0613 71.2744 75.592C70.9117 75.112 70.709 74.5733 70.6664 73.976H73.7064C73.749 74.264 73.8824 74.488 74.1064 74.648C74.3304 74.808 74.6077 74.888 74.9384 74.888C75.1944 74.888 75.397 74.8347 75.5464 74.728C75.6957 74.6213 75.7704 74.4827 75.7704 74.312C75.7704 74.088 75.6477 73.9227 75.4024 73.816C75.157 73.7093 74.7517 73.592 74.1864 73.464C73.5464 73.336 73.013 73.192 72.5864 73.032C72.1597 72.872 71.7864 72.6107 71.4664 72.248C71.157 71.8853 71.0024 71.3947 71.0024 70.776C71.0024 70.2427 71.1464 69.7627 71.4344 69.336C71.7224 68.8987 72.1437 68.552 72.6984 68.296C73.2637 68.04 73.941 67.912 74.7304 67.912C75.9037 67.912 76.8264 68.2 77.4984 68.776C78.1704 69.352 78.5597 70.1093 78.6664 71.048H75.8344C75.781 70.76 75.653 70.5413 75.4504 70.392C75.2584 70.232 74.997 70.152 74.6664 70.152C74.4104 70.152 74.213 70.2 74.0744 70.296C73.9464 70.392 73.8824 70.5253 73.8824 70.696C73.8824 70.9093 74.005 71.0747 74.2504 71.192C74.4957 71.2987 74.8904 71.4107 75.4344 71.528C76.085 71.6667 76.6237 71.8213 77.0504 71.992C77.4877 72.1627 77.8664 72.44 78.1864 72.824C78.517 73.1973 78.6824 73.7093 78.6824 74.36C78.6824 74.8827 78.5277 75.352 78.2184 75.768C77.9197 76.184 77.4877 76.5147 76.9224 76.76C76.3677 76.9947 75.7117 77.112 74.9544 77.112ZM84.4161 65.144L84.0481 72.776H81.3761L81.0081 65.144H84.4161ZM82.7201 77.128C82.1655 77.128 81.7175 76.9787 81.3761 76.68C81.0455 76.3707 80.8801 75.9813 80.8801 75.512C80.8801 75.0427 81.0455 74.6533 81.3761 74.344C81.7175 74.0347 82.1655 73.88 82.7201 73.88C83.2641 73.88 83.7015 74.0347 84.0321 74.344C84.3735 74.6533 84.5441 75.0427 84.5441 75.512C84.5441 75.9707 84.3735 76.3547 84.0321 76.664C83.7015 76.9733 83.2641 77.128 82.7201 77.128Z" fill="white"/>
<defs>
<filter id="filter0_d_1_4165" x="-7" y="0" width="371" height="139" filterUnits="userSpaceOnUse" color-interpolation-filters="sRGB">
<feFlood flood-opacity="0" result="BackgroundImageFix"/>
<feColorMatrix in="SourceAlpha" type="matrix" values="0 0 0 0 0 0 0 0 0 0 0 0 0 0 0 0 0 0 127 0" result="hardAlpha"/>
<feOffset/>
<feGaussianBlur stdDeviation="4.5"/>
<feComposite in2="hardAlpha" operator="out"/>
<feColorMatrix type="matrix" values="0 0 0 0 0 0 0 0 0 0 0 0 0 0 0 0 0 0 0.25 0"/>
<feBlend mode="normal" in2="BackgroundImageFix" result="effect1_dropShadow_1_4165"/>
<feBlend mode="normal" in="SourceGraphic" in2="effect1_dropShadow_1_4165" result="shape"/>
</filter>
</defs>
</svg>
